# xmcd CD database file
#
# Track frame offsets:
#	150
#	13720
#	24875
#	46020
#	58200
#	81857
#	97365
#	110647
#	121360
#	133010
#	145710
#	159215
#	178142
#	192025
#	204282
#	226302
#	238777
#	252420
#	265702
#	277162
#
# Disc length: 3861 seconds
#
# Revision: 0
# Processed by: cddbd v1.5PL3 Copyright (c) Steve Scherf et al.
# Submitted via: CDex 1.51
#
DISCID=180f1314
DTITLE=Various Artist - 1997-Everyday I Have The Blues
DYEAR=1997
DGENRE=Blues
TTITLE0=Crawling Kingsnake - John Lee Hooker
TTITLE1=BLues After Hours - Pee Wee Crayton
TTITLE2=Straighten Up Baby - Smokey Wilson
TTITLE3=Lonesome Dog Blues - Lightnin' Hopkins
TTITLE4=Tv Mama - Joe Turner
TTITLE5=No Rollin' Blues - Jimmy Witherspoon
TTITLE6=Jake Head Boogie - Lightnin' Hopkins
TTITLE7=Me And My Chauffeur - Big Mama Thornton
TTITLE8=Shattered Dreams - Lowell Fulson
TTITLE9=Everyday (I Have The Blues) - B B King
TTITLE10=Sneakin' Around - B B King
TTITLE11=House Rockin' Boogie - Howlin' Wolf
TTITLE12=Too Many Drivers - Z Z Hill
TTITLE13=Have Mercy Someone - Z Z Hill
TTITLE14=Chains Of Love - Joe Turner
TTITLE15=Good Morning Little School Girl -Smokey Hogg
TTITLE16=Telephone Blues - Little Geroge Smith
TTITLE17=Gone With The Wind - Roosevelt Sykes
TTITLE18=Jealous Woman - T Bone Walker
TTITLE19=Happy Home - Elmore James
EXTD=YEAR: 1997
EXTT0=
EXTT1=
EXTT2=
EXTT3=
EXTT4=
EXTT5=
EXTT6=
EXTT7=
EXTT8=
EXTT9=
EXTT10=
EXTT11=
EXTT12=
EXTT13=
EXTT14=
EXTT15=
EXTT16=
EXTT17=
EXTT18=
EXTT19=
PLAYORDER=
